<?xml version="1.0" encoding="UTF-8" standalone="no"?>
<!DOCTYPE svg PUBLIC "-//W3C//DTD SVG 1.1//EN"
 "http://www.w3.org/Graphics/SVG/1.1/DTD/svg11.dtd">
<!-- Generated by graphviz version 13.1.0 (20250701.0955)
 -->
<!-- Title: G Pages: 1 -->
<svg width="2520pt" height="1340pt"
 viewBox="0.00 0.00 2520.00 1340.00" xmlns="http://www.w3.org/2000/svg" xmlns:xlink="http://www.w3.org/1999/xlink">
<g id="graph0" class="graph" transform="scale(1 1) rotate(0) translate(21.6 1318.31)">
<title>G</title>
<polygon fill="#111111" stroke="none" points="-21.6,21.6 -21.6,-1318.31 2498.35,-1318.31 2498.35,21.6 -21.6,21.6"/>
<!-- client/App.tsx -->
<g id="node1" class="node">
<title>client/App.tsx</title>
<path fill="none" stroke="#c6c5fe" d="M340.58,-666.14C340.58,-666.14 260.17,-666.14 260.17,-666.14 256.21,-666.14 252.25,-662.19 252.25,-658.23 252.25,-658.23 252.25,-650.31 252.25,-650.31 252.25,-646.35 256.21,-642.39 260.17,-642.39 260.17,-642.39 340.58,-642.39 340.58,-642.39 344.54,-642.39 348.5,-646.35 348.5,-650.31 348.5,-650.31 348.5,-658.23 348.5,-658.23 348.5,-662.19 344.54,-666.14 340.58,-666.14"/>
<text xml:space="preserve" text-anchor="middle" x="300.38" y="-648.84" font-family="Arial" font-size="14.00" fill="#c6c5fe">client/App.tsx</text>
</g>
<!-- client/interface/Interface.tsx -->
<g id="node2" class="node">
<title>client/interface/Interface.tsx</title>
<path fill="none" stroke="#c6c5fe" d="M610.83,-666.14C610.83,-666.14 446.42,-666.14 446.42,-666.14 442.46,-666.14 438.5,-662.19 438.5,-658.23 438.5,-658.23 438.5,-650.31 438.5,-650.31 438.5,-646.35 442.46,-642.39 446.42,-642.39 446.42,-642.39 610.83,-642.39 610.83,-642.39 614.79,-642.39 618.75,-646.35 618.75,-650.31 618.75,-650.31 618.75,-658.23 618.75,-658.23 618.75,-662.19 614.79,-666.14 610.83,-666.14"/>
<text xml:space="preserve" text-anchor="middle" x="528.62" y="-648.84" font-family="Arial" font-size="14.00" fill="#c6c5fe">client/interface/Interface.tsx</text>
</g>
<!-- client/App.tsx&#45;&gt;client/interface/Interface.tsx -->
<g id="edge1" class="edge">
<title>client/App.tsx&#45;&gt;client/interface/Interface.tsx</title>
<path fill="none" stroke="#757575" d="M348.8,-654.27C371.58,-654.27 399.8,-654.27 427.03,-654.27"/>
<polygon fill="#757575" stroke="#757575" points="426.7,-657.77 436.7,-654.27 426.7,-650.77 426.7,-657.77"/>
</g>
<!-- client/interface/components/DPad.tsx -->
<g id="node9" class="node">
<title>client/interface/components/DPad.tsx</title>
<path fill="none" stroke="#c6c5fe" d="M915.21,-889.14C915.21,-889.14 691.54,-889.14 691.54,-889.14 687.58,-889.14 683.62,-885.19 683.62,-881.23 683.62,-881.23 683.62,-873.31 683.62,-873.31 683.62,-869.35 687.58,-865.39 691.54,-865.39 691.54,-865.39 915.21,-865.39 915.21,-865.39 919.17,-865.39 923.12,-869.35 923.12,-873.31 923.12,-873.31 923.12,-881.23 923.12,-881.23 923.12,-885.19 919.17,-889.14 915.21,-889.14"/>
<text xml:space="preserve" text-anchor="middle" x="803.38" y="-871.84" font-family="Arial" font-size="14.00" fill="#c6c5fe">client/interface/components/DPad.tsx</text>
</g>
<!-- client/interface/Interface.tsx&#45;&gt;client/interface/components/DPad.tsx -->
<g id="edge7" class="edge">
<title>client/interface/Interface.tsx&#45;&gt;client/interface/components/DPad.tsx</title>
<path fill="none" stroke="#757575" d="M533.44,-666.48C545.14,-701.7 584.03,-803.96 654.75,-851.27 660.5,-855.11 666.65,-858.44 673.04,-861.32"/>
<polygon fill="#757575" stroke="#757575" points="671.3,-864.39 681.89,-864.91 673.93,-857.9 671.3,-864.39"/>
</g>
<!-- client/interface/components/GamepadButton.tsx -->
<g id="node10" class="node">
<title>client/interface/components/GamepadButton.tsx</title>
<path fill="none" stroke="#c6c5fe" d="M1285.58,-849.14C1285.58,-849.14 995.92,-849.14 995.92,-849.14 991.96,-849.14 988,-845.19 988,-841.23 988,-841.23 988,-833.31 988,-833.31 988,-829.35 991.96,-825.39 995.92,-825.39 995.92,-825.39 1285.58,-825.39 1285.58,-825.39 1289.54,-825.39 1293.5,-829.35 1293.5,-833.31 1293.5,-833.31 1293.5,-841.23 1293.5,-841.23 1293.5,-845.19 1289.54,-849.14 1285.58,-849.14"/>
<text xml:space="preserve" text-anchor="middle" x="1140.75" y="-831.84" font-family="Arial" font-size="14.00" fill="#c6c5fe">client/interface/components/GamepadButton.tsx</text>
</g>
<!-- client/interface/Interface.tsx&#45;&gt;client/interface/components/GamepadButton.tsx -->
<g id="edge8" class="edge">
<title>client/interface/Interface.tsx&#45;&gt;client/interface/components/GamepadButton.tsx</title>
<path fill="none" stroke="#757575" d="M534.39,-666.24C547.76,-697.96 588.96,-784.09 654.75,-818.27 709.04,-846.47 857.75,-848.79 976.32,-845.52"/>
<polygon fill="#757575" stroke="#757575" points="976.29,-849.02 986.19,-845.23 976.09,-842.03 976.29,-849.02"/>
</g>
<!-- client/interface/components/InstallPrompt.tsx -->
<g id="node11" class="node">
<title>client/interface/components/InstallPrompt.tsx</title>
<path fill="none" stroke="#cfffac" d="M938.08,-392.14C938.08,-392.14 668.67,-392.14 668.67,-392.14 664.71,-392.14 660.75,-388.19 660.75,-384.23 660.75,-384.23 660.75,-376.31 660.75,-376.31 660.75,-372.35 664.71,-368.39 668.67,-368.39 668.67,-368.39 938.08,-368.39 938.08,-368.39 942.04,-368.39 946,-372.35 946,-376.31 946,-376.31 946,-384.23 946,-384.23 946,-388.19 942.04,-392.14 938.08,-392.14"/>
<text xml:space="preserve" text-anchor="middle" x="803.38" y="-374.84" font-family="Arial" font-size="14.00" fill="#cfffac">client/interface/components/InstallPrompt.tsx</text>
</g>
<!-- client/interface/Interface.tsx&#45;&gt;client/interface/components/InstallPrompt.tsx -->
<g id="edge9" class="edge">
<title>client/interface/Interface.tsx&#45;&gt;client/interface/components/InstallPrompt.tsx</title>
<path fill="none" stroke="#757575" d="M531.82,-641.98C539.83,-601 571.52,-468.1 654.75,-406.27 659.33,-402.86 664.21,-399.85 669.31,-397.19"/>
<polygon fill="#757575" stroke="#757575" points="670.4,-400.54 677.98,-393.13 667.44,-394.2 670.4,-400.54"/>
</g>
<!-- client/interface/components/MenuButton.tsx -->
<g id="node12" class="node">
<title>client/interface/components/MenuButton.tsx</title>
<path fill="none" stroke="#c6c5fe" d="M935.08,-809.14C935.08,-809.14 671.67,-809.14 671.67,-809.14 667.71,-809.14 663.75,-805.19 663.75,-801.23 663.75,-801.23 663.75,-793.31 663.75,-793.31 663.75,-789.35 667.71,-785.39 671.67,-785.39 671.67,-785.39 935.08,-785.39 935.08,-785.39 939.04,-785.39 943,-789.35 943,-793.31 943,-793.31 943,-801.23 943,-801.23 943,-805.19 939.04,-809.14 935.08,-809.14"/>
<text xml:space="preserve" text-anchor="middle" x="803.38" y="-791.84" font-family="Arial" font-size="14.00" fill="#c6c5fe">client/interface/components/MenuButton.tsx</text>
</g>
<!-- client/interface/Interface.tsx&#45;&gt;client/interface/components/MenuButton.tsx -->
<g id="edge10" class="edge">
<title>client/interface/Interface.tsx&#45;&gt;client/interface/components/MenuButton.tsx</title>
<path fill="none" stroke="#757575" d="M537.95,-666.52C555.93,-691.87 601.11,-749.89 654.75,-776.27 658.28,-778.01 661.92,-779.61 665.63,-781.09"/>
<polygon fill="#757575" stroke="#757575" points="664.26,-784.32 674.85,-784.44 666.64,-777.74 664.26,-784.32"/>
</g>
<!-- client/interface/components/MenuScreen.tsx -->
<g id="node13" class="node">
<title>client/interface/components/MenuScreen.tsx</title>
<path fill="none" stroke="#c6c5fe" d="M936.96,-767.14C936.96,-767.14 669.79,-767.14 669.79,-767.14 665.83,-767.14 661.88,-763.19 661.88,-759.23 661.88,-759.23 661.88,-751.31 661.88,-751.31 661.88,-747.35 665.83,-743.39 669.79,-743.39 669.79,-743.39 936.96,-743.39 936.96,-743.39 940.92,-743.39 944.88,-747.35 944.88,-751.31 944.88,-751.31 944.88,-759.23 944.88,-759.23 944.88,-763.19 940.92,-767.14 936.96,-767.14"/>
<text xml:space="preserve" text-anchor="middle" x="803.38" y="-749.84" font-family="Arial" font-size="14.00" fill="#c6c5fe">client/interface/components/MenuScreen.tsx</text>
</g>
<!-- client/interface/Interface.tsx&#45;&gt;client/interface/components/MenuScreen.tsx -->
<g id="edge11" class="edge">
<title>client/interface/Interface.tsx&#45;&gt;client/interface/components/MenuScreen.tsx</title>
<path fill="none" stroke="#757575" d="M543.92,-666.37C566.07,-684.4 610.75,-717.95 654.75,-734.27 660.51,-736.41 666.48,-738.33 672.56,-740.06"/>
<polygon fill="#757575" stroke="#757575" points="671.58,-743.42 682.14,-742.58 673.36,-736.65 671.58,-743.42"/>
</g>
<!-- client/interface/components/NavigationDots.tsx -->
<g id="node14" class="node">
<title>client/interface/components/NavigationDots.tsx</title>
<path fill="none" stroke="#c6c5fe" d="M944.08,-725.14C944.08,-725.14 662.67,-725.14 662.67,-725.14 658.71,-725.14 654.75,-721.19 654.75,-717.23 654.75,-717.23 654.75,-709.31 654.75,-709.31 654.75,-705.35 658.71,-701.39 662.67,-701.39 662.67,-701.39 944.08,-701.39 944.08,-701.39 948.04,-701.39 952,-705.35 952,-709.31 952,-709.31 952,-717.23 952,-717.23 952,-721.19 948.04,-725.14 944.08,-725.14"/>
<text xml:space="preserve" text-anchor="middle" x="803.38" y="-707.84" font-family="Arial" font-size="14.00" fill="#c6c5fe">client/interface/components/NavigationDots.tsx</text>
</g>
<!-- client/interface/Interface.tsx&#45;&gt;client/interface/components/NavigationDots.tsx -->
<g id="edge12" class="edge">
<title>client/interface/Interface.tsx&#45;&gt;client/interface/components/NavigationDots.tsx</title>
<path fill="none" stroke="#757575" d="M572.84,-666.62C596.85,-673.24 627.32,-681.25 654.75,-687.27 673.86,-691.46 694.47,-695.44 714.06,-698.96"/>
<polygon fill="#757575" stroke="#757575" points="713.19,-702.36 723.64,-700.65 714.41,-695.46 713.19,-702.36"/>
</g>
<!-- client/interface/components/StoryMinimap.tsx -->
<g id="node15" class="node">
<title>client/interface/components/StoryMinimap.tsx</title>
<path fill="none" stroke="#c6c5fe" d="M1611.33,-693.14C1611.33,-693.14 1337.42,-693.14 1337.42,-693.14 1333.46,-693.14 1329.5,-689.19 1329.5,-685.23 1329.5,-685.23 1329.5,-677.31 1329.5,-677.31 1329.5,-673.35 1333.46,-669.39 1337.42,-669.39 1337.42,-669.39 1611.33,-669.39 1611.33,-669.39 1615.29,-669.39 1619.25,-673.35 1619.25,-677.31 1619.25,-677.31 1619.25,-685.23 1619.25,-685.23 1619.25,-689.19 1615.29,-693.14 1611.33,-693.14"/>
<text xml:space="preserve" text-anchor="middle" x="1474.38" y="-675.84" font-family="Arial" font-size="14.00" fill="#c6c5fe">client/interface/components/StoryMinimap.tsx</text>
</g>
<!-- client/interface/Interface.tsx&#45;&gt;client/interface/components/StoryMinimap.tsx -->
<g id="edge13" class="edge">
<title>client/interface/Interface.tsx&#45;&gt;client/interface/components/StoryMinimap.tsx</title>
<path fill="none" stroke="#757575" d="M619.16,-657.99C631.12,-658.44 643.23,-658.88 654.75,-659.27 885.68,-666.99 1153.32,-673.77 1317.99,-677.7"/>
<polygon fill="#757575" stroke="#757575" points="1317.59,-681.19 1327.67,-677.93 1317.75,-674.19 1317.59,-681.19"/>
</g>
<!-- client/interface/components/ThemeToggle.tsx -->
<g id="node16" class="node">
<title>client/interface/components/ThemeToggle.tsx</title>
<path fill="none" stroke="#cfffac" d="M939.58,-350.14C939.58,-350.14 667.17,-350.14 667.17,-350.14 663.21,-350.14 659.25,-346.19 659.25,-342.23 659.25,-342.23 659.25,-334.31 659.25,-334.31 659.25,-330.35 663.21,-326.39 667.17,-326.39 667.17,-326.39 939.58,-326.39 939.58,-326.39 943.54,-326.39 947.5,-330.35 947.5,-334.31 947.5,-334.31 947.5,-342.23 947.5,-342.23 947.5,-346.19 943.54,-350.14 939.58,-350.14"/>
<text xml:space="preserve" text-anchor="middle" x="803.38" y="-332.84" font-family="Arial" font-size="14.00" fill="#cfffac">client/interface/components/ThemeToggle.tsx</text>
</g>
<!-- client/interface/Interface.tsx&#45;&gt;client/interface/components/ThemeToggle.tsx -->
<g id="edge14" class="edge">
<title>client/interface/Interface.tsx&#45;&gt;client/interface/components/ThemeToggle.tsx</title>
<path fill="none" stroke="#757575" d="M530.69,-641.9C535.37,-595.88 558.39,-433.36 654.75,-359.27 656.1,-358.23 657.47,-357.24 658.87,-356.28"/>
<polygon fill="#757575" stroke="#757575" points="660.41,-359.44 667.17,-351.27 656.8,-353.44 660.41,-359.44"/>
</g>
<!-- client/interface/hooks/useKeyboardControls.ts -->
<g id="node17" class="node">
<title>client/interface/hooks/useKeyboardControls.ts</title>
<path fill="none" stroke="#c6c5fe" d="M1278.08,-655.14C1278.08,-655.14 1003.42,-655.14 1003.42,-655.14 999.46,-655.14 995.5,-651.19 995.5,-647.23 995.5,-647.23 995.5,-639.31 995.5,-639.31 995.5,-635.35 999.46,-631.39 1003.42,-631.39 1003.42,-631.39 1278.08,-631.39 1278.08,-631.39 1282.04,-631.39 1286,-635.35 1286,-639.31 1286,-639.31 1286,-647.23 1286,-647.23 1286,-651.19 1282.04,-655.14 1278.08,-655.14"/>
<text xml:space="preserve" text-anchor="middle" x="1140.75" y="-637.84" font-family="Arial" font-size="14.00" fill="#c6c5fe">client/interface/hooks/useKeyboardControls.ts</text>
</g>
<!-- client/interface/Interface.tsx&#45;&gt;client/interface/hooks/useKeyboardControls.ts -->
<g id="edge15" class="edge">
<title>client/interface/Interface.tsx&#45;&gt;client/interface/hooks/useKeyboardControls.ts</title>
<path fill="none" stroke="#757575" d="M619,-652.66C714.61,-650.93 868.11,-648.17 983.74,-646.08"/>
<polygon fill="#757575" stroke="#757575" points="983.71,-649.58 993.64,-645.9 983.58,-642.58 983.71,-649.58"/>
</g>
<!-- client/interface/hooks/useMenuSystem.ts -->
<g id="node18" class="node">
<title>client/interface/hooks/useMenuSystem.ts</title>
<path fill="none" stroke="#c6c5fe" d="M1264.21,-1169.14C1264.21,-1169.14 1017.29,-1169.14 1017.29,-1169.14 1013.33,-1169.14 1009.38,-1165.19 1009.38,-1161.23 1009.38,-1161.23 1009.38,-1153.31 1009.38,-1153.31 1009.38,-1149.35 1013.33,-1145.39 1017.29,-1145.39 1017.29,-1145.39 1264.21,-1145.39 1264.21,-1145.39 1268.17,-1145.39 1272.12,-1149.35 1272.12,-1153.31 1272.12,-1153.31 1272.12,-1161.23 1272.12,-1161.23 1272.12,-1165.19 1268.17,-1169.14 1264.21,-1169.14"/>
<text xml:space="preserve" text-anchor="middle" x="1140.75" y="-1151.84" font-family="Arial" font-size="14.00" fill="#c6c5fe">client/interface/hooks/useMenuSystem.ts</text>
</g>
<!-- client/interface/Interface.tsx&#45;&gt;client/interface/hooks/useMenuSystem.ts -->
<g id="edge16" class="edge">
<title>client/interface/Interface.tsx&#45;&gt;client/interface/hooks/useMenuSystem.ts</title>
<path fill="none" stroke="#757575" d="M530.4,-666.57C534.17,-715.62 554.69,-899.19 654.75,-996.27 747.23,-1085.99 890.88,-1125.73 997.87,-1143.32"/>
<polygon fill="#757575" stroke="#757575" points="997.17,-1146.75 1007.59,-1144.87 998.27,-1139.84 997.17,-1146.75"/>
</g>
<!-- client/interface/hooks/useOfflineStatus.ts -->
<g id="node19" class="node">
<title>client/interface/hooks/useOfflineStatus.ts</title>
<path fill="none" stroke="#cfffac" d="M925.71,-308.14C925.71,-308.14 681.04,-308.14 681.04,-308.14 677.08,-308.14 673.12,-304.19 673.12,-300.23 673.12,-300.23 673.12,-292.31 673.12,-292.31 673.12,-288.35 677.08,-284.39 681.04,-284.39 681.04,-284.39 925.71,-284.39 925.71,-284.39 929.67,-284.39 933.62,-288.35 933.62,-292.31 933.62,-292.31 933.62,-300.23 933.62,-300.23 933.62,-304.19 929.67,-308.14 925.71,-308.14"/>
<text xml:space="preserve" text-anchor="middle" x="803.38" y="-290.84" font-family="Arial" font-size="14.00" fill="#cfffac">client/interface/hooks/useOfflineStatus.ts</text>
</g>
<!-- client/interface/Interface.tsx&#45;&gt;client/interface/hooks/useOfflineStatus.ts -->
<g id="edge17" class="edge">
<title>client/interface/Interface.tsx&#45;&gt;client/interface/hooks/useOfflineStatus.ts</title>
<path fill="none" stroke="#757575" d="M529.98,-641.95C532.13,-592.08 547.36,-403.81 654.75,-317.27 657.35,-315.18 660.06,-313.24 662.87,-311.45"/>
<polygon fill="#757575" stroke="#757575" points="664.41,-314.6 671.42,-306.66 660.99,-308.49 664.41,-314.6"/>
</g>
<!-- client/interface/hooks/useStoryTree.ts -->
<g id="node20" class="node">
<title>client/interface/hooks/useStoryTree.ts</title>
<path fill="none" stroke="#c6c5fe" d="M916.33,-472.14C916.33,-472.14 690.42,-472.14 690.42,-472.14 686.46,-472.14 682.5,-468.19 682.5,-464.23 682.5,-464.23 682.5,-456.31 682.5,-456.31 682.5,-452.35 686.46,-448.39 690.42,-448.39 690.42,-448.39 916.33,-448.39 916.33,-448.39 920.29,-448.39 924.25,-452.35 924.25,-456.31 924.25,-456.31 924.25,-464.23 924.25,-464.23 924.25,-468.19 920.29,-472.14 916.33,-472.14"/>
<text xml:space="preserve" text-anchor="middle" x="803.38" y="-454.84" font-family="Arial" font-size="14.00" fill="#c6c5fe">client/interface/hooks/useStoryTree.ts</text>
</g>
<!-- client/interface/Interface.tsx&#45;&gt;client/interface/hooks/useStoryTree.ts -->
<g id="edge18" class="edge">
<title>client/interface/Interface.tsx&#45;&gt;client/interface/hooks/useStoryTree.ts</title>
<path fill="none" stroke="#757575" d="M536.38,-642.2C552.83,-613.91 597.83,-542.9 654.75,-505.27 675.01,-491.88 699.43,-482.33 722.53,-475.58"/>
<polygon fill="#757575" stroke="#757575" points="723.21,-479.02 731.92,-472.98 721.35,-472.27 723.21,-479.02"/>
</g>
<!-- client/interface/menus/EditMenu.tsx -->
<g id="node21" class="node">
<title>client/interface/menus/EditMenu.tsx</title>
<path fill="none" stroke="#c6c5fe" d="M1248.08,-613.14C1248.08,-613.14 1033.42,-613.14 1033.42,-613.14 1029.46,-613.14 1025.5,-609.19 1025.5,-605.23 1025.5,-605.23 1025.5,-597.31 1025.5,-597.31 1025.5,-593.35 1029.46,-589.39 1033.42,-589.39 1033.42,-589.39 1248.08,-589.39 1248.08,-589.39 1252.04,-589.39 1256,-593.35 1256,-597.31 1256,-597.31 1256,-605.23 1256,-605.23 1256,-609.19 1252.04,-613.14 1248.08,-613.14"/>
<text xml:space="preserve" text-anchor="middle" x="1140.75" y="-595.84" font-family="Arial" font-size="14.00" fill="#c6c5fe">client/interface/menus/EditMenu.tsx</text>
</g>
<!-- client/interface/Interface.tsx&#45;&gt;client/interface/menus/EditMenu.tsx -->
<g id="edge19" class="edge">
<title>client/interface/Interface.tsx&#45;&gt;client/interface/menus/EditMenu.tsx</title>
<path fill="none" stroke="#757575" d="M619.16,-646.38C631.13,-645.33 643.24,-644.27 654.75,-643.27 776.64,-632.63 915.77,-620.6 1013.66,-612.14"/>
<polygon fill="#757575" stroke="#757575" points="1013.92,-615.63 1023.59,-611.29 1013.32,-608.66 1013.92,-615.63"/>
</g>
<!-- client/interface/menus/SettingsMenu.tsx -->
<g id="node22" class="node">
<title>client/interface/menus/SettingsMenu.tsx</title>
<path fill="none" stroke="#c6c5fe" d="M1260.83,-1047.14C1260.83,-1047.14 1020.67,-1047.14 1020.67,-1047.14 1016.71,-1047.14 1012.75,-1043.19 1012.75,-1039.23 1012.75,-1039.23 1012.75,-1031.31 1012.75,-1031.31 1012.75,-1027.35 1016.71,-1023.39 1020.67,-1023.39 1020.67,-1023.39 1260.83,-1023.39 1260.83,-1023.39 1264.79,-1023.39 1268.75,-1027.35 1268.75,-1031.31 1268.75,-1031.31 1268.75,-1039.23 1268.75,-1039.23 1268.75,-1043.19 1264.79,-1047.14 1260.83,-1047.14"/>
<text xml:space="preserve" text-anchor="middle" x="1140.75" y="-1029.84" font-family="Arial" font-size="14.00" fill="#c6c5fe">client/interface/menus/SettingsMenu.tsx</text>
</g>
<!-- client/interface/Interface.tsx&#45;&gt;client/interface/menus/SettingsMenu.tsx -->
<g id="edge20" class="edge">
<title>client/interface/Interface.tsx&#45;&gt;client/interface/menus/SettingsMenu.tsx</title>
<path fill="none" stroke="#757575" d="M531.25,-666.59C537.69,-710.33 565.63,-859.37 654.75,-931.27 752.23,-1009.92 895.51,-1032.77 1001.07,-1037.84"/>
<polygon fill="#757575" stroke="#757575" points="1000.8,-1041.33 1010.94,-1038.26 1001.1,-1034.34 1000.8,-1041.33"/>
</g>
<!-- client/interface/menus/TreeListMenu.tsx -->
<g id="node23" class="node">
<title>client/interface/menus/TreeListMenu.tsx</title>
<path fill="none" stroke="#c6c5fe" d="M1260.83,-571.14C1260.83,-571.14 1020.67,-571.14 1020.67,-571.14 1016.71,-571.14 1012.75,-567.19 1012.75,-563.23 1012.75,-563.23 1012.75,-555.31 1012.75,-555.31 1012.75,-551.35 1016.71,-547.39 1020.67,-547.39 1020.67,-547.39 1260.83,-547.39 1260.83,-547.39 1264.79,-547.39 1268.75,-551.35 1268.75,-555.31 1268.75,-555.31 1268.75,-563.23 1268.75,-563.23 1268.75,-567.19 1264.79,-571.14 1260.83,-571.14"/>
<text xml:space="preserve" text-anchor="middle" x="1140.75" y="-553.84" font-family="Arial" font-size="14.00" fill="#c6c5fe">client/interface/menus/TreeListMenu.tsx</text>
</g>
<!-- client/interface/Interface.tsx&#45;&gt;client/interface/menus/TreeListMenu.tsx -->
<g id="edge21" class="edge">
<title>client/interface/Interface.tsx&#45;&gt;client/interface/menus/TreeListMenu.tsx</title>
<path fill="none" stroke="#757575" d="M562.08,-641.95C587.06,-632.95 622.64,-621.15 654.75,-614.27 770.02,-589.56 903.23,-575.46 1000.85,-567.74"/>
<polygon fill="#757575" stroke="#757575" points="1001.07,-571.24 1010.77,-566.97 1000.52,-564.26 1001.07,-571.24"/>
</g>
<!-- client/interface/terminal&#45;custom.css -->
<g id="node24" class="node">
<title>client/interface/terminal&#45;custom.css</title>
<path fill="none" stroke="#cfffac" d="M909.58,-266.14C909.58,-266.14 697.17,-266.14 697.17,-266.14 693.21,-266.14 689.25,-262.19 689.25,-258.23 689.25,-258.23 689.25,-250.31 689.25,-250.31 689.25,-246.35 693.21,-242.39 697.17,-242.39 697.17,-242.39 909.58,-242.39 909.58,-242.39 913.54,-242.39 917.5,-246.35 917.5,-250.31 917.5,-250.31 917.5,-258.23 917.5,-258.23 917.5,-262.19 913.54,-266.14 909.58,-266.14"/>
<text xml:space="preserve" text-anchor="middle" x="803.38" y="-248.84" font-family="Arial" font-size="14.00" fill="#cfffac">client/interface/terminal&#45;custom.css</text>
</g>
<!-- client/interface/Interface.tsx&#45;&gt;client/interface/terminal&#45;custom.css -->
<g id="edge22" class="edge">
<title>client/interface/Interface.tsx&#45;&gt;client/interface/terminal&#45;custom.css</title>
<path fill="none" stroke="#757575" d="M529.42,-641.94C529.25,-588.42 536.23,-374.41 654.75,-275.27 661.88,-269.31 669.91,-264.6 678.45,-260.92"/>
<polygon fill="#757575" stroke="#757575" points="679.55,-264.25 687.68,-257.46 677.09,-257.69 679.55,-264.25"/>
</g>
<!-- client/interface/types/index.ts -->
<g id="node25" class="node">
<title>client/interface/types/index.ts</title>
<path fill="none" stroke="#c6c5fe" d="M1879.33,-752.14C1879.33,-752.14 1705.92,-752.14 1705.92,-752.14 1701.96,-752.14 1698,-748.19 1698,-744.23 1698,-744.23 1698,-736.31 1698,-736.31 1698,-732.35 1701.96,-728.39 1705.92,-728.39 1705.92,-728.39 1879.33,-728.39 1879.33,-728.39 1883.29,-728.39 1887.25,-732.35 1887.25,-736.31 1887.25,-736.31 1887.25,-744.23 1887.25,-744.23 1887.25,-748.19 1883.29,-752.14 1879.33,-752.14"/>
<text xml:space="preserve" text-anchor="middle" x="1792.62" y="-734.84" font-family="Arial" font-size="14.00" fill="#c6c5fe">client/interface/types/index.ts</text>
</g>
<!-- client/interface/Interface.tsx&#45;&gt;client/interface/types/index.ts -->
<g id="edge23" class="edge">
<title>client/interface/Interface.tsx&#45;&gt;client/interface/types/index.ts</title>
<path fill="none" stroke="#757575" d="M542.61,-642.07C564.04,-622.77 609.02,-585.69 654.75,-569.27 755.67,-533.03 1521.94,-492.24 1619.25,-537.27 1701.26,-575.22 1758.51,-673.54 1781.02,-717.93"/>
<polygon fill="#757575" stroke="#757575" points="1777.75,-719.21 1785.31,-726.63 1784.02,-716.11 1777.75,-719.21"/>
</g>
<!-- client/interface/utils/scrolling.ts -->
<g id="node26" class="node">
<title>client/interface/utils/scrolling.ts</title>
<path fill="none" stroke="#c6c5fe" d="M1565.58,-925.14C1565.58,-925.14 1383.17,-925.14 1383.17,-925.14 1379.21,-925.14 1375.25,-921.19 1375.25,-917.23 1375.25,-917.23 1375.25,-909.31 1375.25,-909.31 1375.25,-905.35 1379.21,-901.39 1383.17,-901.39 1383.17,-901.39 1565.58,-901.39 1565.58,-901.39 1569.54,-901.39 1573.5,-905.35 1573.5,-909.31 1573.5,-909.31 1573.5,-917.23 1573.5,-917.23 1573.5,-921.19 1569.54,-925.14 1565.58,-925.14"/>
<text xml:space="preserve" text-anchor="middle" x="1474.38" y="-907.84" font-family="Arial" font-size="14.00" fill="#c6c5fe">client/interface/utils/scrolling.ts</text>
</g>
<!-- client/interface/Interface.tsx&#45;&gt;client/interface/utils/scrolling.ts -->
<g id="edge24" class="edge">
<title>client/interface/Interface.tsx&#45;&gt;client/interface/utils/scrolling.ts</title>
<path fill="none" stroke="#757575" d="M531.49,-666.58C538.54,-708.19 567.7,-843.98 654.75,-898.27 713.3,-934.78 1154.01,-924.54 1363.45,-917.46"/>
<polygon fill="#757575" stroke="#757575" points="1363.39,-920.96 1373.26,-917.12 1363.15,-913.96 1363.39,-920.96"/>
</g>
<!-- client/interface/utils/textSplitter.ts -->
<g id="node27" class="node">
<title>client/interface/utils/textSplitter.ts</title>
<path fill="none" stroke="#c6c5fe" d="M1572.33,-416.14C1572.33,-416.14 1376.42,-416.14 1376.42,-416.14 1372.46,-416.14 1368.5,-412.19 1368.5,-408.23 1368.5,-408.23 1368.5,-400.31 1368.5,-400.31 1368.5,-396.35 1372.46,-392.39 1376.42,-392.39 1376.42,-392.39 1572.33,-392.39 1572.33,-392.39 1576.29,-392.39 1580.25,-396.35 1580.25,-400.31 1580.25,-400.31 1580.25,-408.23 1580.25,-408.23 1580.25,-412.19 1576.29,-416.14 1572.33,-416.14"/>
<text xml:space="preserve" text-anchor="middle" x="1474.38" y="-398.84" font-family="Arial" font-size="14.00" fill="#c6c5fe">client/interface/utils/textSplitter.ts</text>
</g>
<!-- client/interface/Interface.tsx&#45;&gt;client/interface/utils/textSplitter.ts -->
<g id="edge25" class="edge">
<title>client/interface/Interface.tsx&#45;&gt;client/interface/utils/textSplitter.ts</title>
<path fill="none" stroke="#757575" d="M532.46,-641.91C541.95,-603.72 576.53,-487.26 654.75,-439.27 712.98,-403.54 1144.73,-401.72 1356.68,-403.04"/>
<polygon fill="#757575" stroke="#757575" points="1356.61,-406.54 1366.64,-403.11 1356.66,-399.54 1356.61,-406.54"/>
</g>
<!-- server/apis/generation.ts -->
<g id="node28" class="node">
<title>server/apis/generation.ts</title>
<path fill="none" stroke="#c6c5fe" d="M2121.83,-752.14C2121.83,-752.14 1973.92,-752.14 1973.92,-752.14 1969.96,-752.14 1966,-748.19 1966,-744.23 1966,-744.23 1966,-736.31 1966,-736.31 1966,-732.35 1969.96,-728.39 1973.92,-728.39 1973.92,-728.39 2121.83,-728.39 2121.83,-728.39 2125.79,-728.39 2129.75,-732.35 2129.75,-736.31 2129.75,-736.31 2129.75,-744.23 2129.75,-744.23 2129.75,-748.19 2125.79,-752.14 2121.83,-752.14"/>
<text xml:space="preserve" text-anchor="middle" x="2047.88" y="-734.84" font-family="Arial" font-size="14.00" fill="#c6c5fe">server/apis/generation.ts</text>
</g>
<!-- client/interface/Interface.tsx&#45;&gt;server/apis/generation.ts -->
<g id="edge26" class="edge">
<title>client/interface/Interface.tsx&#45;&gt;server/apis/generation.ts</title>
<path fill="none" stroke="#757575" d="M529.57,-666.56C529.96,-722.02 538.79,-951.84 654.75,-1079.27 811,-1250.98 907.59,-1273.27 1139.75,-1273.27 1139.75,-1273.27 1139.75,-1273.27 1475.38,-1273.27 1678.96,-1273.27 1777.83,-1352.51 1930,-1217.27 1999.7,-1155.32 2035.62,-850.98 2044.6,-763.7"/>
<polygon fill="#757575" stroke="#757575" points="2048.06,-764.26 2045.58,-753.96 2041.09,-763.56 2048.06,-764.26"/>
</g>
<!-- client/demo/Demo.css -->
<g id="node3" class="node">
<title>client/demo/Demo.css</title>
<path fill="none" stroke="#cfffac" d="M2316.71,-141.14C2316.71,-141.14 2182.29,-141.14 2182.29,-141.14 2178.33,-141.14 2174.38,-137.19 2174.38,-133.23 2174.38,-133.23 2174.38,-125.31 2174.38,-125.31 2174.38,-121.35 2178.33,-117.39 2182.29,-117.39 2182.29,-117.39 2316.71,-117.39 2316.71,-117.39 2320.67,-117.39 2324.62,-121.35 2324.62,-125.31 2324.62,-125.31 2324.62,-133.23 2324.62,-133.23 2324.62,-137.19 2320.67,-141.14 2316.71,-141.14"/>
<text xml:space="preserve" text-anchor="middle" x="2249.5" y="-123.84" font-family="Arial" font-size="14.00" fill="#cfffac">client/demo/Demo.css</text>
</g>
<!-- client/demo/Demo.tsx -->
<g id="node4" class="node">
<title>client/demo/Demo.tsx</title>
<path fill="none" stroke="#c6c5fe" d="M2113.58,-141.14C2113.58,-141.14 1982.17,-141.14 1982.17,-141.14 1978.21,-141.14 1974.25,-137.19 1974.25,-133.23 1974.25,-133.23 1974.25,-125.31 1974.25,-125.31 1974.25,-121.35 1978.21,-117.39 1982.17,-117.39 1982.17,-117.39 2113.58,-117.39 2113.58,-117.39 2117.54,-117.39 2121.5,-121.35 2121.5,-125.31 2121.5,-125.31 2121.5,-133.23 2121.5,-133.23 2121.5,-137.19 2117.54,-141.14 2113.58,-141.14"/>
<text xml:space="preserve" text-anchor="middle" x="2047.88" y="-123.84" font-family="Arial" font-size="14.00" fill="#c6c5fe">client/demo/Demo.tsx</text>
</g>
<!-- client/demo/Demo.tsx&#45;&gt;client/demo/Demo.css -->
<g id="edge2" class="edge">
<title>client/demo/Demo.tsx&#45;&gt;client/demo/Demo.css</title>
<path fill="none" stroke="#757575" d="M2121.79,-129.27C2135.1,-129.27 2149.11,-129.27 2162.75,-129.27"/>
<polygon fill="#757575" stroke="#757575" points="2162.59,-132.77 2172.59,-129.27 2162.59,-125.77 2162.59,-132.77"/>
</g>
<!-- client/demo/Elements.tsx -->
<g id="node5" class="node">
<title>client/demo/Elements.tsx</title>
<path fill="none" stroke="#cfffac" d="M2325.33,-99.14C2325.33,-99.14 2173.67,-99.14 2173.67,-99.14 2169.71,-99.14 2165.75,-95.19 2165.75,-91.23 2165.75,-91.23 2165.75,-83.31 2165.75,-83.31 2165.75,-79.35 2169.71,-75.39 2173.67,-75.39 2173.67,-75.39 2325.33,-75.39 2325.33,-75.39 2329.29,-75.39 2333.25,-79.35 2333.25,-83.31 2333.25,-83.31 2333.25,-91.23 2333.25,-91.23 2333.25,-95.19 2329.29,-99.14 2325.33,-99.14"/>
<text xml:space="preserve" text-anchor="middle" x="2249.5" y="-81.84" font-family="Arial" font-size="14.00" fill="#cfffac">client/demo/Elements.tsx</text>
</g>
<!-- client/demo/Demo.tsx&#45;&gt;client/demo/Elements.tsx -->
<g id="edge3" class="edge">
<title>client/demo/Demo.tsx&#45;&gt;client/demo/Elements.tsx</title>
<path fill="none" stroke="#757575" d="M2107.69,-116.89C2129.93,-112.22 2155.45,-106.85 2178.61,-101.97"/>
<polygon fill="#757575" stroke="#757575" points="2179.22,-105.42 2188.28,-99.94 2177.77,-98.57 2179.22,-105.42"/>
</g>
<!-- client/demo/Icons.tsx -->
<g id="node6" class="node">
<title>client/demo/Icons.tsx</title>
<path fill="none" stroke="#cfffac" d="M2312.96,-57.14C2312.96,-57.14 2186.04,-57.14 2186.04,-57.14 2182.08,-57.14 2178.12,-53.19 2178.12,-49.23 2178.12,-49.23 2178.12,-41.31 2178.12,-41.31 2178.12,-37.35 2182.08,-33.39 2186.04,-33.39 2186.04,-33.39 2312.96,-33.39 2312.96,-33.39 2316.92,-33.39 2320.88,-37.35 2320.88,-41.31 2320.88,-41.31 2320.88,-49.23 2320.88,-49.23 2320.88,-53.19 2316.92,-57.14 2312.96,-57.14"/>
<text xml:space="preserve" text-anchor="middle" x="2249.5" y="-39.84" font-family="Arial" font-size="14.00" fill="#cfffac">client/demo/Icons.tsx</text>
</g>
<!-- client/demo/Demo.tsx&#45;&gt;client/demo/Icons.tsx -->
<g id="edge4" class="edge">
<title>client/demo/Demo.tsx&#45;&gt;client/demo/Icons.tsx</title>
<path fill="none" stroke="#757575" d="M2068.02,-117.04C2090.61,-103.06 2129.67,-80.33 2165.75,-66.27 2170.75,-64.32 2176,-62.5 2181.31,-60.82"/>
<polygon fill="#757575" stroke="#757575" points="2182.24,-64.19 2190.82,-57.98 2180.24,-57.49 2182.24,-64.19"/>
</g>
<!-- shared/main_props.ts -->
<g id="node7" class="node">
<title>shared/main_props.ts</title>
<path fill="none" stroke="#c6c5fe" d="M2314.83,-221.14C2314.83,-221.14 2184.17,-221.14 2184.17,-221.14 2180.21,-221.14 2176.25,-217.19 2176.25,-213.23 2176.25,-213.23 2176.25,-205.31 2176.25,-205.31 2176.25,-201.35 2180.21,-197.39 2184.17,-197.39 2184.17,-197.39 2314.83,-197.39 2314.83,-197.39 2318.79,-197.39 2322.75,-201.35 2322.75,-205.31 2322.75,-205.31 2322.75,-213.23 2322.75,-213.23 2322.75,-217.19 2318.79,-221.14 2314.83,-221.14"/>
<text xml:space="preserve" text-anchor="middle" x="2249.5" y="-203.84" font-family="Arial" font-size="14.00" fill="#c6c5fe">shared/main_props.ts</text>
</g>
<!-- client/demo/Demo.tsx&#45;&gt;shared/main_props.ts -->
<g id="edge5" class="edge">
<title>client/demo/Demo.tsx&#45;&gt;shared/main_props.ts</title>
<path fill="none" stroke="#757575" d="M2073.11,-141.58C2096.47,-153.18 2133.01,-170.62 2165.75,-183.27 2175.04,-186.86 2185.05,-190.33 2194.79,-193.5"/>
<polygon fill="#757575" stroke="#757575" points="2193.58,-196.79 2204.17,-196.48 2195.71,-190.12 2193.58,-196.79"/>
</g>
<!-- shared/types.ts -->
<g id="node8" class="node">
<title>shared/types.ts</title>
<path fill="none" stroke="#cfffac" d="M2468.83,-201.14C2468.83,-201.14 2377.17,-201.14 2377.17,-201.14 2373.21,-201.14 2369.25,-197.19 2369.25,-193.23 2369.25,-193.23 2369.25,-185.31 2369.25,-185.31 2369.25,-181.35 2373.21,-177.39 2377.17,-177.39 2377.17,-177.39 2468.83,-177.39 2468.83,-177.39 2472.79,-177.39 2476.75,-181.35 2476.75,-185.31 2476.75,-185.31 2476.75,-193.23 2476.75,-193.23 2476.75,-197.19 2472.79,-201.14 2468.83,-201.14"/>
<text xml:space="preserve" text-anchor="middle" x="2423" y="-183.84" font-family="Arial" font-size="14.00" fill="#cfffac">shared/types.ts</text>
</g>
<!-- client/demo/Demo.tsx&#45;&gt;shared/types.ts -->
<g id="edge6" class="edge">
<title>client/demo/Demo.tsx&#45;&gt;shared/types.ts</title>
<path fill="none" stroke="#757575" d="M2115.88,-141.63C2132.18,-144.54 2149.58,-147.59 2165.75,-150.27 2230.96,-161.09 2305.7,-172.33 2357.57,-179.95"/>
<polygon fill="#757575" stroke="#757575" points="2357.03,-183.41 2367.43,-181.4 2358.05,-176.48 2357.03,-183.41"/>
</g>
<!-- shared/main_props.ts&#45;&gt;shared/types.ts -->
<g id="edge79" class="edge">
<title>shared/main_props.ts&#45;&gt;shared/types.ts</title>
<path fill="none" stroke="#757575" d="M2323.23,-200.79C2334.61,-199.46 2346.31,-198.1 2357.49,-196.79"/>
<polygon fill="#757575" stroke="#757575" points="2357.89,-200.27 2367.42,-195.63 2357.08,-193.32 2357.89,-200.27"/>
</g>
<!-- client/interface/components/DPad.tsx&#45;&gt;client/interface/components/GamepadButton.tsx -->
<g id="edge27" class="edge">
<title>client/interface/components/DPad.tsx&#45;&gt;client/interface/components/GamepadButton.tsx</title>
<path fill="none" stroke="#757575" d="M907.74,-864.94C944.87,-860.51 986.97,-855.49 1025.01,-850.95"/>
<polygon fill="#757575" stroke="#757575" points="1025.14,-854.46 1034.65,-849.8 1024.31,-847.51 1025.14,-854.46"/>
</g>
<!-- client/interface/components/DPad.tsx&#45;&gt;client/interface/types/index.ts -->
<g id="edge28" class="edge">
<title>client/interface/components/DPad.tsx&#45;&gt;client/interface/types/index.ts</title>
<path fill="none" stroke="#757575" d="M923.41,-889.6C1084.84,-902.37 1380.44,-911.65 1619.25,-840.27 1676.93,-823.03 1735.83,-783.03 1767.65,-759.17"/>
<polygon fill="#757575" stroke="#757575" points="1769.59,-762.09 1775.42,-753.24 1765.35,-756.53 1769.59,-762.09"/>
</g>
<!-- client/interface/components/GamepadButton.tsx&#45;&gt;client/interface/types/index.ts -->
<g id="edge29" class="edge">
<title>client/interface/components/GamepadButton.tsx&#45;&gt;client/interface/types/index.ts</title>
<path fill="none" stroke="#757575" d="M1293.81,-841.9C1388.52,-841.63 1512.26,-835.48 1619.25,-811.27 1669.81,-799.83 1724.58,-774.91 1758.5,-757.86"/>
<polygon fill="#757575" stroke="#757575" points="1760.08,-760.98 1767.4,-753.31 1756.9,-754.74 1760.08,-760.98"/>
</g>
<!-- client/interface/components/MenuButton.tsx&#45;&gt;client/interface/types/index.ts -->
<g id="edge30" class="edge">
<title>client/interface/components/MenuButton.tsx&#45;&gt;client/interface/types/index.ts</title>
<path fill="none" stroke="#757575" d="M943.32,-793.46C1105.65,-788.4 1382.22,-777.84 1619.25,-759.27 1641.08,-757.56 1664.41,-755.29 1686.63,-752.91"/>
<polygon fill="#757575" stroke="#757575" points="1686.72,-756.42 1696.29,-751.86 1685.97,-749.46 1686.72,-756.42"/>
</g>
<!-- client/interface/components/MenuScreen.tsx&#45;&gt;client/interface/types/index.ts -->
<g id="edge32" class="edge">
<title>client/interface/components/MenuScreen.tsx&#45;&gt;client/interface/types/index.ts</title>
<path fill="none" stroke="#757575" d="M945.3,-753.13C1145.48,-750.09 1507.67,-744.58 1686.25,-741.87"/>
<polygon fill="#757575" stroke="#757575" points="1686.29,-745.37 1696.23,-741.72 1686.18,-738.37 1686.29,-745.37"/>
</g>
<!-- client/interface/components/NavigationDots.tsx&#45;&gt;client/interface/types/index.ts -->
<g id="edge35" class="edge">
<title>client/interface/components/NavigationDots.tsx&#45;&gt;client/interface/types/index.ts</title>
<path fill="none" stroke="#757575" d="M952.44,-717.32C1153.98,-722.83 1509.7,-732.56 1686.2,-737.39"/>
<polygon fill="#757575" stroke="#757575" points="1685.96,-740.88 1696.05,-737.66 1686.15,-733.88 1685.96,-740.88"/>
</g>
<!-- client/interface/components/StoryMinimap.tsx&#45;&gt;client/interface/types/index.ts -->
<g id="edge36" class="edge">
<title>client/interface/components/StoryMinimap.tsx&#45;&gt;client/interface/types/index.ts</title>
<path fill="none" stroke="#757575" d="M1544.56,-693.62C1568.25,-697.89 1594.92,-702.74 1619.25,-707.27 1651.4,-713.25 1686.89,-720.02 1717.26,-725.86"/>
<polygon fill="#757575" stroke="#757575" points="1716.24,-729.23 1726.72,-727.68 1717.56,-722.35 1716.24,-729.23"/>
</g>
<!-- client/interface/hooks/useKeyboardControls.ts&#45;&gt;client/interface/types/index.ts -->
<g id="edge37" class="edge">
<title>client/interface/hooks/useKeyboardControls.ts&#45;&gt;client/interface/types/index.ts</title>
<path fill="none" stroke="#757575" d="M1286.35,-633.64C1382.1,-630.85 1509.74,-634.04 1619.25,-660.27 1672.61,-673.05 1729.38,-702.98 1762.62,-722.39"/>
<polygon fill="#757575" stroke="#757575" points="1760.46,-725.18 1770.84,-727.27 1764.03,-719.16 1760.46,-725.18"/>
</g>
<!-- client/interface/hooks/useMenuSystem.ts&#45;&gt;client/interface/types/index.ts -->
<g id="edge40" class="edge">
<title>client/interface/hooks/useMenuSystem.ts&#45;&gt;client/interface/types/index.ts</title>
<path fill="none" stroke="#757575" d="M1207.61,-1169.59C1322.63,-1189.58 1554.1,-1222.65 1619.25,-1178.27 1763.84,-1079.79 1787.15,-839.71 1790.9,-763.73"/>
<polygon fill="#757575" stroke="#757575" points="1794.38,-764.27 1791.3,-754.13 1787.39,-763.98 1794.38,-764.27"/>
</g>
<!-- client/interface/hooks/useMenuSystem.ts&#45;&gt;client/interface/utils/scrolling.ts -->
<g id="edge41" class="edge">
<title>client/interface/hooks/useMenuSystem.ts&#45;&gt;client/interface/utils/scrolling.ts</title>
<path fill="none" stroke="#757575" d="M1169.38,-1145.01C1202.8,-1128.95 1258.88,-1097.86 1293.5,-1056.27 1319.49,-1025.05 1300.55,-1000.76 1329.5,-972.27 1350.3,-951.79 1379.19,-938.09 1405.63,-929.09"/>
<polygon fill="#757575" stroke="#757575" points="1406.5,-932.49 1414.95,-926.1 1404.35,-925.82 1406.5,-932.49"/>
</g>
<!-- client/interface/hooks/useMenuSystem.ts&#45;&gt;server/apis/generation.ts -->
<g id="edge42" class="edge">
<title>client/interface/hooks/useMenuSystem.ts&#45;&gt;server/apis/generation.ts</title>
<path fill="none" stroke="#757575" d="M1180.08,-1169.54C1217.68,-1180.88 1276.86,-1196.91 1329.5,-1203.27 1462.11,-1219.28 1827.54,-1262.96 1930,-1177.27 1995.4,-1122.58 2033.94,-846.32 2044.13,-763.66"/>
<polygon fill="#757575" stroke="#757575" points="2047.6,-764.17 2045.32,-753.82 2040.65,-763.33 2047.6,-764.17"/>
</g>
<!-- client/interface/hooks/useModels.ts -->
<g id="node33" class="node">
<title>client/interface/hooks/useModels.ts</title>
<path fill="none" stroke="#c6c5fe" d="M1579.83,-1169.14C1579.83,-1169.14 1368.92,-1169.14 1368.92,-1169.14 1364.96,-1169.14 1361,-1165.19 1361,-1161.23 1361,-1161.23 1361,-1153.31 1361,-1153.31 1361,-1149.35 1364.96,-1145.39 1368.92,-1145.39 1368.92,-1145.39 1579.83,-1145.39 1579.83,-1145.39 1583.79,-1145.39 1587.75,-1149.35 1587.75,-1153.31 1587.75,-1153.31 1587.75,-1161.23 1587.75,-1161.23 1587.75,-1165.19 1583.79,-1169.14 1579.83,-1169.14"/>
<text xml:space="preserve" text-anchor="middle" x="1474.38" y="-1151.84" font-family="Arial" font-size="14.00" fill="#c6c5fe">client/interface/hooks/useModels.ts</text>
</g>
<!-- client/interface/hooks/useMenuSystem.ts&#45;&gt;client/interface/hooks/useModels.ts -->
<g id="edge39" class="edge">
<title>client/interface/hooks/useMenuSystem.ts&#45;&gt;client/interface/hooks/useModels.ts</title>
<path fill="none" stroke="#757575" d="M1272.34,-1157.27C1297.65,-1157.27 1324.1,-1157.27 1349.19,-1157.27"/>
<polygon fill="#757575" stroke="#757575" points="1349.1,-1160.77 1359.1,-1157.27 1349.1,-1153.77 1349.1,-1160.77"/>
</g>
<!-- client/interface/hooks/useStoryTree.ts&#45;&gt;client/interface/types/index.ts -->
<g id="edge50" class="edge">
<title>client/interface/hooks/useStoryTree.ts&#45;&gt;client/interface/types/index.ts</title>
<path fill="none" stroke="#757575" d="M924.62,-461.44C1136.54,-464.33 1559.83,-474.1 1619.25,-506.27 1707.57,-554.08 1762.76,-669 1782.94,-717.77"/>
<polygon fill="#757575" stroke="#757575" points="1779.57,-718.78 1786.55,-726.75 1786.07,-716.17 1779.57,-718.78"/>
</g>
<!-- client/interface/hooks/useStoryTree.ts&#45;&gt;server/apis/generation.ts -->
<g id="edge51" class="edge">
<title>client/interface/hooks/useStoryTree.ts&#45;&gt;server/apis/generation.ts</title>
<path fill="none" stroke="#757575" d="M858.43,-447.91C888.57,-438.9 925.29,-424.18 952,-401.27 975.9,-380.77 961.99,-358.01 988,-340.27 1074.72,-281.11 1847.33,-203.58 1930,-268.27 2002.71,-325.17 2036.5,-629.44 2044.79,-716.8"/>
<polygon fill="#757575" stroke="#757575" points="2041.29,-716.92 2045.69,-726.55 2048.26,-716.28 2041.29,-716.92"/>
</g>
<!-- client/interface/hooks/useLocalStorage.ts -->
<g id="node32" class="node">
<title>client/interface/hooks/useLocalStorage.ts</title>
<path fill="none" stroke="#c6c5fe" d="M1263.83,-453.14C1263.83,-453.14 1017.67,-453.14 1017.67,-453.14 1013.71,-453.14 1009.75,-449.19 1009.75,-445.23 1009.75,-445.23 1009.75,-437.31 1009.75,-437.31 1009.75,-433.35 1013.71,-429.39 1017.67,-429.39 1017.67,-429.39 1263.83,-429.39 1263.83,-429.39 1267.79,-429.39 1271.75,-433.35 1271.75,-437.31 1271.75,-437.31 1271.75,-445.23 1271.75,-445.23 1271.75,-449.19 1267.79,-453.14 1263.83,-453.14"/>
<text xml:space="preserve" text-anchor="middle" x="1140.75" y="-435.84" font-family="Arial" font-size="14.00" fill="#c6c5fe">client/interface/hooks/useLocalStorage.ts</text>
</g>
<!-- client/interface/hooks/useStoryTree.ts&#45;&gt;client/interface/hooks/useLocalStorage.ts -->
<g id="edge48" class="edge">
<title>client/interface/hooks/useStoryTree.ts&#45;&gt;client/interface/hooks/useLocalStorage.ts</title>
<path fill="none" stroke="#757575" d="M924.51,-453.46C948.38,-452.11 973.66,-450.68 998.18,-449.29"/>
<polygon fill="#757575" stroke="#757575" points="998.09,-452.8 1007.87,-448.74 997.69,-445.81 998.09,-452.8"/>
</g>
<!-- client/interface/hooks/useStoryGeneration.ts -->
<g id="node34" class="node">
<title>client/interface/hooks/useStoryGeneration.ts</title>
<path fill="none" stroke="#c6c5fe" d="M1273.58,-373.14C1273.58,-373.14 1007.92,-373.14 1007.92,-373.14 1003.96,-373.14 1000,-369.19 1000,-365.23 1000,-365.23 1000,-357.31 1000,-357.31 1000,-353.35 1003.96,-349.39 1007.92,-349.39 1007.92,-349.39 1273.58,-349.39 1273.58,-349.39 1277.54,-349.39 1281.5,-353.35 1281.5,-357.31 1281.5,-357.31 1281.5,-365.23 1281.5,-365.23 1281.5,-369.19 1277.54,-373.14 1273.58,-373.14"/>
<text xml:space="preserve" text-anchor="middle" x="1140.75" y="-355.84" font-family="Arial" font-size="14.00" fill="#c6c5fe">client/interface/hooks/useStoryGeneration.ts</text>
</g>
<!-- client/interface/hooks/useStoryTree.ts&#45;&gt;client/interface/hooks/useStoryGeneration.ts -->
<g id="edge49" class="edge">
<title>client/interface/hooks/useStoryTree.ts&#45;&gt;client/interface/hooks/useStoryGeneration.ts</title>
<path fill="none" stroke="#757575" d="M846.17,-447.93C907.22,-429.91 1020.71,-396.41 1087.29,-376.76"/>
<polygon fill="#757575" stroke="#757575" points="1087.9,-380.22 1096.5,-374.04 1085.92,-373.51 1087.9,-380.22"/>
</g>
<!-- client/interface/menus/EditMenu.tsx&#45;&gt;client/interface/types/index.ts -->
<g id="edge53" class="edge">
<title>client/interface/menus/EditMenu.tsx&#45;&gt;client/interface/types/index.ts</title>
<path fill="none" stroke="#757575" d="M1256.19,-591.93C1354.85,-587.62 1499.84,-590.32 1619.25,-629.27 1679.05,-648.78 1738.43,-694.25 1769.47,-720.54"/>
<polygon fill="#757575" stroke="#757575" points="1767.16,-723.17 1777.02,-727.04 1771.73,-717.86 1767.16,-723.17"/>
</g>
<!-- client/interface/menus/SettingsMenu.tsx&#45;&gt;client/interface/types/index.ts -->
<g id="edge58" class="edge">
<title>client/interface/menus/SettingsMenu.tsx&#45;&gt;client/interface/types/index.ts</title>
<path fill="none" stroke="#757575" d="M1172.45,-1022.92C1209.2,-1008.62 1272.89,-985.35 1329.5,-972.27 1456.05,-943.03 1504.49,-995.09 1619.25,-934.27 1695.99,-893.59 1754.9,-804.17 1779.32,-762.48"/>
<polygon fill="#757575" stroke="#757575" points="1782.34,-764.25 1784.27,-753.83 1776.27,-760.77 1782.34,-764.25"/>
</g>
<!-- client/interface/menus/SettingsMenu.tsx&#45;&gt;server/apis/generation.ts -->
<g id="edge59" class="edge">
<title>client/interface/menus/SettingsMenu.tsx&#45;&gt;server/apis/generation.ts</title>
<path fill="none" stroke="#757575" d="M1169.11,-1047.58C1243.75,-1079.33 1456.17,-1157.52 1619.25,-1098.27 1812.71,-1027.98 1979.75,-827.55 2030.84,-761.6"/>
<polygon fill="#757575" stroke="#757575" points="2033.56,-763.81 2036.86,-753.74 2028,-759.55 2033.56,-763.81"/>
</g>
<!-- client/interface/components/MenuKnob.tsx -->
<g id="node29" class="node">
<title>client/interface/components/MenuKnob.tsx</title>
<path fill="none" stroke="#c6c5fe" d="M1602.33,-1047.14C1602.33,-1047.14 1346.42,-1047.14 1346.42,-1047.14 1342.46,-1047.14 1338.5,-1043.19 1338.5,-1039.23 1338.5,-1039.23 1338.5,-1031.31 1338.5,-1031.31 1338.5,-1027.35 1342.46,-1023.39 1346.42,-1023.39 1346.42,-1023.39 1602.33,-1023.39 1602.33,-1023.39 1606.29,-1023.39 1610.25,-1027.35 1610.25,-1031.31 1610.25,-1031.31 1610.25,-1039.23 1610.25,-1039.23 1610.25,-1043.19 1606.29,-1047.14 1602.33,-1047.14"/>
<text xml:space="preserve" text-anchor="middle" x="1474.38" y="-1029.84" font-family="Arial" font-size="14.00" fill="#c6c5fe">client/interface/components/MenuKnob.tsx</text>
</g>
<!-- client/interface/menus/SettingsMenu.tsx&#45;&gt;client/interface/components/MenuKnob.tsx -->
<g id="edge54" class="edge">
<title>client/interface/menus/SettingsMenu.tsx&#45;&gt;client/interface/components/MenuKnob.tsx</title>
<path fill="none" stroke="#757575" d="M1269.02,-1035.27C1287.95,-1035.27 1307.59,-1035.27 1326.88,-1035.27"/>
<polygon fill="#757575" stroke="#757575" points="1326.68,-1038.77 1336.68,-1035.27 1326.68,-1031.77 1326.68,-1038.77"/>
</g>
<!-- client/interface/components/MenuSelect.tsx -->
<g id="node30" class="node">
<title>client/interface/components/MenuSelect.tsx</title>
<path fill="none" stroke="#c6c5fe" d="M1605.33,-1005.14C1605.33,-1005.14 1343.42,-1005.14 1343.42,-1005.14 1339.46,-1005.14 1335.5,-1001.19 1335.5,-997.23 1335.5,-997.23 1335.5,-989.31 1335.5,-989.31 1335.5,-985.35 1339.46,-981.39 1343.42,-981.39 1343.42,-981.39 1605.33,-981.39 1605.33,-981.39 1609.29,-981.39 1613.25,-985.35 1613.25,-989.31 1613.25,-989.31 1613.25,-997.23 1613.25,-997.23 1613.25,-1001.19 1609.29,-1005.14 1605.33,-1005.14"/>
<text xml:space="preserve" text-anchor="middle" x="1474.38" y="-987.84" font-family="Arial" font-size="14.00" fill="#c6c5fe">client/interface/components/MenuSelect.tsx</text>
</g>
<!-- client/interface/menus/SettingsMenu.tsx&#45;&gt;client/interface/components/MenuSelect.tsx -->
<g id="edge55" class="edge">
<title>client/interface/menus/SettingsMenu.tsx&#45;&gt;client/interface/components/MenuSelect.tsx</title>
<path fill="none" stroke="#757575" d="M1239.45,-1022.89C1278.75,-1017.92 1324.22,-1012.16 1364.56,-1007.05"/>
<polygon fill="#757575" stroke="#757575" points="1364.81,-1010.55 1374.29,-1005.82 1363.93,-1003.6 1364.81,-1010.55"/>
</g>
<!-- client/interface/components/MenuToggle.tsx -->
<g id="node31" class="node">
<title>client/interface/components/MenuToggle.tsx</title>
<path fill="none" stroke="#c6c5fe" d="M1606.46,-1089.14C1606.46,-1089.14 1342.29,-1089.14 1342.29,-1089.14 1338.33,-1089.14 1334.38,-1085.19 1334.38,-1081.23 1334.38,-1081.23 1334.38,-1073.31 1334.38,-1073.31 1334.38,-1069.35 1338.33,-1065.39 1342.29,-1065.39 1342.29,-1065.39 1606.46,-1065.39 1606.46,-1065.39 1610.42,-1065.39 1614.38,-1069.35 1614.38,-1073.31 1614.38,-1073.31 1614.38,-1081.23 1614.38,-1081.23 1614.38,-1085.19 1610.42,-1089.14 1606.46,-1089.14"/>
<text xml:space="preserve" text-anchor="middle" x="1474.38" y="-1071.84" font-family="Arial" font-size="14.00" fill="#c6c5fe">client/interface/components/MenuToggle.tsx</text>
</g>
<!-- client/interface/menus/SettingsMenu.tsx&#45;&gt;client/interface/components/MenuToggle.tsx -->
<g id="edge56" class="edge">
<title>client/interface/menus/SettingsMenu.tsx&#45;&gt;client/interface/components/MenuToggle.tsx</title>
<path fill="none" stroke="#757575" d="M1239.45,-1047.64C1278.75,-1052.62 1324.22,-1058.38 1364.56,-1063.49"/>
<polygon fill="#757575" stroke="#757575" points="1363.93,-1066.94 1374.29,-1064.72 1364.81,-1059.99 1363.93,-1066.94"/>
</g>
<!-- client/interface/menus/SettingsMenu.tsx&#45;&gt;client/interface/hooks/useModels.ts -->
<g id="edge57" class="edge">
<title>client/interface/menus/SettingsMenu.tsx&#45;&gt;client/interface/hooks/useModels.ts</title>
<path fill="none" stroke="#757575" d="M1160.91,-1047.49C1193.98,-1068.02 1264.47,-1109.3 1329.5,-1131.27 1342.69,-1135.72 1356.83,-1139.46 1370.91,-1142.59"/>
<polygon fill="#757575" stroke="#757575" points="1370.18,-1146.01 1380.69,-1144.65 1371.62,-1139.16 1370.18,-1146.01"/>
</g>
<!-- client/interface/menus/TreeListMenu.tsx&#45;&gt;client/interface/types/index.ts -->
<g id="edge60" class="edge">
<title>client/interface/menus/TreeListMenu.tsx&#45;&gt;client/interface/types/index.ts</title>
<path fill="none" stroke="#757575" d="M1235.06,-546.9C1334.33,-537.69 1494.03,-534.38 1619.25,-586.27 1688.72,-615.05 1748.84,-684.21 1776.08,-719.21"/>
<polygon fill="#757575" stroke="#757575" points="1773.11,-721.09 1781.96,-726.91 1778.68,-716.84 1773.11,-721.09"/>
</g>
<!-- client/interface/types/index.ts&#45;&gt;server/apis/generation.ts -->
<g id="edge61" class="edge">
<title>client/interface/types/index.ts&#45;&gt;server/apis/generation.ts</title>
<path fill="none" stroke="#757575" d="M1887.57,-740.27C1909.38,-740.27 1932.59,-740.27 1954.34,-740.27"/>
<polygon fill="#757575" stroke="#757575" points="1954.06,-743.77 1964.06,-740.27 1954.06,-736.77 1954.06,-743.77"/>
</g>
<!-- client/interface/utils/scrolling.ts&#45;&gt;client/interface/types/index.ts -->
<g id="edge62" class="edge">
<title>client/interface/utils/scrolling.ts&#45;&gt;client/interface/types/index.ts</title>
<path fill="none" stroke="#757575" d="M1573.9,-902.62C1589.51,-898.93 1605.14,-893.95 1619.25,-887.27 1684.88,-856.18 1745.51,-793.46 1774.21,-760.92"/>
<polygon fill="#757575" stroke="#757575" points="1776.53,-763.58 1780.44,-753.73 1771.25,-758.99 1776.53,-763.58"/>
</g>
<!-- client/interface/utils/textSplitter.ts&#45;&gt;client/interface/types/index.ts -->
<g id="edge63" class="edge">
<title>client/interface/utils/textSplitter.ts&#45;&gt;client/interface/types/index.ts</title>
<path fill="none" stroke="#757575" d="M1580.44,-411.94C1594.3,-416.1 1607.69,-422 1619.25,-430.27 1721.88,-503.7 1770.66,-658.21 1786.03,-716.94"/>
<polygon fill="#757575" stroke="#757575" points="1782.6,-717.65 1788.45,-726.49 1789.39,-715.94 1782.6,-717.65"/>
</g>
<!-- server/config.ts -->
<g id="node50" class="node">
<title>server/config.ts</title>
<path fill="none" stroke="#cfffac" d="M2295.33,-752.14C2295.33,-752.14 2203.67,-752.14 2203.67,-752.14 2199.71,-752.14 2195.75,-748.19 2195.75,-744.23 2195.75,-744.23 2195.75,-736.31 2195.75,-736.31 2195.75,-732.35 2199.71,-728.39 2203.67,-728.39 2203.67,-728.39 2295.33,-728.39 2295.33,-728.39 2299.29,-728.39 2303.25,-732.35 2303.25,-736.31 2303.25,-736.31 2303.25,-744.23 2303.25,-744.23 2303.25,-748.19 2299.29,-752.14 2295.33,-752.14"/>
<text xml:space="preserve" text-anchor="middle" x="2249.5" y="-734.84" font-family="Arial" font-size="14.00" fill="#cfffac">server/config.ts</text>
</g>
<!-- server/apis/generation.ts&#45;&gt;server/config.ts -->
<g id="edge68" class="edge">
<title>server/apis/generation.ts&#45;&gt;server/config.ts</title>
<path fill="none" stroke="#757575" d="M2130.07,-740.27C2148.13,-740.27 2167.04,-740.27 2184.31,-740.27"/>
<polygon fill="#757575" stroke="#757575" points="2183.88,-743.77 2193.88,-740.27 2183.88,-736.77 2183.88,-743.77"/>
</g>
<!-- client/interface/components/MenuKnob.tsx&#45;&gt;client/interface/types/index.ts -->
<g id="edge31" class="edge">
<title>client/interface/components/MenuKnob.tsx&#45;&gt;client/interface/types/index.ts</title>
<path fill="none" stroke="#757575" d="M1603.18,-1022.93C1608.78,-1020.44 1614.17,-1017.57 1619.25,-1014.27 1714.49,-952.27 1766.82,-817.26 1784.61,-763.27"/>
<polygon fill="#757575" stroke="#757575" points="1787.88,-764.5 1787.59,-753.91 1781.22,-762.37 1787.88,-764.5"/>
</g>
<!-- client/interface/components/MenuSelect.tsx&#45;&gt;client/interface/types/index.ts -->
<g id="edge33" class="edge">
<title>client/interface/components/MenuSelect.tsx&#45;&gt;client/interface/types/index.ts</title>
<path fill="none" stroke="#757575" d="M1589.48,-980.95C1599.95,-977.39 1610.05,-972.91 1619.25,-967.27 1702.45,-916.25 1759.77,-809.1 1781.7,-762.59"/>
<polygon fill="#757575" stroke="#757575" points="1784.76,-764.32 1785.76,-753.77 1778.4,-761.39 1784.76,-764.32"/>
</g>
<!-- client/interface/components/MenuToggle.tsx&#45;&gt;client/interface/types/index.ts -->
<g id="edge34" class="edge">
<title>client/interface/components/MenuToggle.tsx&#45;&gt;client/interface/types/index.ts</title>
<path fill="none" stroke="#757575" d="M1604.13,-1064.99C1609.42,-1062.48 1614.49,-1059.59 1619.25,-1056.27 1724.81,-982.78 1772.05,-823.2 1786.52,-763.46"/>
<polygon fill="#757575" stroke="#757575" points="1789.85,-764.61 1788.71,-754.07 1783.03,-763.02 1789.85,-764.61"/>
</g>
<!-- client/interface/hooks/useLocalStorage.ts&#45;&gt;client/interface/types/index.ts -->
<g id="edge38" class="edge">
<title>client/interface/hooks/useLocalStorage.ts&#45;&gt;client/interface/types/index.ts</title>
<path fill="none" stroke="#757575" d="M1272.09,-435.53C1392.99,-432.53 1562.52,-434.93 1619.25,-468.27 1716.94,-525.67 1767.99,-662.66 1785.02,-717.25"/>
<polygon fill="#757575" stroke="#757575" points="1781.63,-718.14 1787.87,-726.7 1788.33,-716.12 1781.63,-718.14"/>
</g>
<!-- client/interface/hooks/useModels.ts&#45;&gt;server/apis/generation.ts -->
<g id="edge43" class="edge">
<title>client/interface/hooks/useModels.ts&#45;&gt;server/apis/generation.ts</title>
<path fill="none" stroke="#757575" d="M1518.89,-1169.57C1607.03,-1191.63 1808.58,-1227.22 1930,-1131.27 1989.77,-1084.04 2031.59,-840.29 2043.44,-763.48"/>
<polygon fill="#757575" stroke="#757575" points="2046.88,-764.17 2044.92,-753.76 2039.96,-763.12 2046.88,-764.17"/>
</g>
<!-- client/interface/hooks/useStoryGeneration.ts&#45;&gt;client/interface/types/index.ts -->
<g id="edge45" class="edge">
<title>client/interface/hooks/useStoryGeneration.ts&#45;&gt;client/interface/types/index.ts</title>
<path fill="none" stroke="#757575" d="M1281.89,-352.26C1402.64,-347.25 1565.71,-347.92 1619.25,-383.27 1739.58,-462.71 1778.41,-651.21 1788.54,-717.07"/>
<polygon fill="#757575" stroke="#757575" points="1785.04,-717.33 1789.94,-726.72 1791.97,-716.32 1785.04,-717.33"/>
</g>
<!-- client/interface/hooks/useStoryGeneration.ts&#45;&gt;client/interface/utils/textSplitter.ts -->
<g id="edge46" class="edge">
<title>client/interface/hooks/useStoryGeneration.ts&#45;&gt;client/interface/utils/textSplitter.ts</title>
<path fill="none" stroke="#757575" d="M1236.78,-373.59C1277.37,-378.85 1324.92,-385.02 1366.71,-390.44"/>
<polygon fill="#757575" stroke="#757575" points="1366.18,-393.9 1376.54,-391.71 1367.08,-386.96 1366.18,-393.9"/>
</g>
<!-- client/interface/hooks/useStoryGeneration.ts&#45;&gt;server/apis/generation.ts -->
<g id="edge47" class="edge">
<title>client/interface/hooks/useStoryGeneration.ts&#45;&gt;server/apis/generation.ts</title>
<path fill="none" stroke="#757575" d="M1185.17,-348.93C1271.42,-326.74 1468.98,-287.6 1619.25,-346.27 1820.91,-425.01 1984.79,-648.32 2032.68,-718.73"/>
<polygon fill="#757575" stroke="#757575" points="2029.56,-720.37 2038.05,-726.71 2035.37,-716.46 2029.56,-720.37"/>
</g>
<!-- client/interface/hooks/useTextGeneration.ts -->
<g id="node35" class="node">
<title>client/interface/hooks/useTextGeneration.ts</title>
<path fill="none" stroke="#c6c5fe" d="M1922.08,-301.14C1922.08,-301.14 1663.17,-301.14 1663.17,-301.14 1659.21,-301.14 1655.25,-297.19 1655.25,-293.23 1655.25,-293.23 1655.25,-285.31 1655.25,-285.31 1655.25,-281.35 1659.21,-277.39 1663.17,-277.39 1663.17,-277.39 1922.08,-277.39 1922.08,-277.39 1926.04,-277.39 1930,-281.35 1930,-285.31 1930,-285.31 1930,-293.23 1930,-293.23 1930,-297.19 1926.04,-301.14 1922.08,-301.14"/>
<text xml:space="preserve" text-anchor="middle" x="1792.62" y="-283.84" font-family="Arial" font-size="14.00" fill="#c6c5fe">client/interface/hooks/useTextGeneration.ts</text>
</g>
<!-- client/interface/hooks/useStoryGeneration.ts&#45;&gt;client/interface/hooks/useTextGeneration.ts -->
<g id="edge44" class="edge">
<title>client/interface/hooks/useStoryGeneration.ts&#45;&gt;client/interface/hooks/useTextGeneration.ts</title>
<path fill="none" stroke="#757575" d="M1179.39,-349C1216.95,-337.34 1276.56,-320.41 1329.5,-312.27 1433.73,-296.25 1552.58,-290.61 1643.65,-288.92"/>
<polygon fill="#757575" stroke="#757575" points="1643.45,-292.42 1653.38,-288.75 1643.33,-285.42 1643.45,-292.42"/>
</g>
<!-- client/interface/hooks/useTextGeneration.ts&#45;&gt;server/apis/generation.ts -->
<g id="edge52" class="edge">
<title>client/interface/hooks/useTextGeneration.ts&#45;&gt;server/apis/generation.ts</title>
<path fill="none" stroke="#757575" d="M1910.16,-301.64C1917.35,-305.3 1924.07,-309.79 1930,-315.27 1990.85,-371.43 2032.34,-636.38 2043.72,-716.96"/>
<polygon fill="#757575" stroke="#757575" points="2040.24,-717.33 2045.08,-726.75 2047.17,-716.37 2040.24,-717.33"/>
</g>
<!-- client/main.tsx -->
<g id="node36" class="node">
<title>client/main.tsx</title>
<path fill="none" stroke="#c6c5fe" d="M124.33,-624.14C124.33,-624.14 37.92,-624.14 37.92,-624.14 33.96,-624.14 30,-620.19 30,-616.23 30,-616.23 30,-608.31 30,-608.31 30,-604.35 33.96,-600.39 37.92,-600.39 37.92,-600.39 124.33,-600.39 124.33,-600.39 128.29,-600.39 132.25,-604.35 132.25,-608.31 132.25,-608.31 132.25,-616.23 132.25,-616.23 132.25,-620.19 128.29,-624.14 124.33,-624.14"/>
<text xml:space="preserve" text-anchor="middle" x="81.12" y="-606.84" font-family="Arial" font-size="14.00" fill="#c6c5fe">client/main.tsx</text>
</g>
<!-- client/main.tsx&#45;&gt;client/App.tsx -->
<g id="edge64" class="edge">
<title>client/main.tsx&#45;&gt;client/App.tsx</title>
<path fill="none" stroke="#757575" d="M132.51,-622.01C164.83,-628.26 206.92,-636.4 240.74,-642.93"/>
<polygon fill="#757575" stroke="#757575" points="239.9,-646.34 250.38,-644.8 241.23,-639.46 239.9,-646.34"/>
</g>
<!-- client/matrix&#45;theme.css -->
<g id="node37" class="node">
<title>client/matrix&#45;theme.css</title>
<path fill="none" stroke="#cfffac" d="M370.21,-624.14C370.21,-624.14 230.54,-624.14 230.54,-624.14 226.58,-624.14 222.62,-620.19 222.62,-616.23 222.62,-616.23 222.62,-608.31 222.62,-608.31 222.62,-604.35 226.58,-600.39 230.54,-600.39 230.54,-600.39 370.21,-600.39 370.21,-600.39 374.17,-600.39 378.12,-604.35 378.12,-608.31 378.12,-608.31 378.12,-616.23 378.12,-616.23 378.12,-620.19 374.17,-624.14 370.21,-624.14"/>
<text xml:space="preserve" text-anchor="middle" x="300.38" y="-606.84" font-family="Arial" font-size="14.00" fill="#cfffac">client/matrix&#45;theme.css</text>
</g>
<!-- client/main.tsx&#45;&gt;client/matrix&#45;theme.css -->
<g id="edge65" class="edge">
<title>client/main.tsx&#45;&gt;client/matrix&#45;theme.css</title>
<path fill="none" stroke="#757575" d="M132.51,-612.27C155.87,-612.27 184.34,-612.27 211.09,-612.27"/>
<polygon fill="#757575" stroke="#757575" points="210.92,-615.77 220.92,-612.27 210.92,-608.77 210.92,-615.77"/>
</g>
<!-- config/declarations.d.ts -->
<g id="node38" class="node">
<title>config/declarations.d.ts</title>
<path fill="none" stroke="#cfffac" d="M150.21,-708.14C150.21,-708.14 12.04,-708.14 12.04,-708.14 8.08,-708.14 4.12,-704.19 4.12,-700.23 4.12,-700.23 4.12,-692.31 4.12,-692.31 4.12,-688.35 8.08,-684.39 12.04,-684.39 12.04,-684.39 150.21,-684.39 150.21,-684.39 154.17,-684.39 158.12,-688.35 158.12,-692.31 158.12,-692.31 158.12,-700.23 158.12,-700.23 158.12,-704.19 154.17,-708.14 150.21,-708.14"/>
<text xml:space="preserve" text-anchor="middle" x="81.12" y="-690.84" font-family="Arial" font-size="14.00" fill="#cfffac">config/declarations.d.ts</text>
</g>
<!-- config/vite&#45;env.d.ts -->
<g id="node39" class="node">
<title>config/vite&#45;env.d.ts</title>
<path fill="none" stroke="#cfffac" d="M137.08,-750.14C137.08,-750.14 25.17,-750.14 25.17,-750.14 21.21,-750.14 17.25,-746.19 17.25,-742.23 17.25,-742.23 17.25,-734.31 17.25,-734.31 17.25,-730.35 21.21,-726.39 25.17,-726.39 25.17,-726.39 137.08,-726.39 137.08,-726.39 141.04,-726.39 145,-730.35 145,-734.31 145,-734.31 145,-742.23 145,-742.23 145,-746.19 141.04,-750.14 137.08,-750.14"/>
<text xml:space="preserve" text-anchor="middle" x="81.12" y="-732.84" font-family="Arial" font-size="14.00" fill="#cfffac">config/vite&#45;env.d.ts</text>
</g>
<!-- config/vite.config.ts -->
<g id="node40" class="node">
<title>config/vite.config.ts</title>
<path fill="none" stroke="#cfffac" d="M138.58,-792.14C138.58,-792.14 23.67,-792.14 23.67,-792.14 19.71,-792.14 15.75,-788.19 15.75,-784.23 15.75,-784.23 15.75,-776.31 15.75,-776.31 15.75,-772.35 19.71,-768.39 23.67,-768.39 23.67,-768.39 138.58,-768.39 138.58,-768.39 142.54,-768.39 146.5,-772.35 146.5,-776.31 146.5,-776.31 146.5,-784.23 146.5,-784.23 146.5,-788.19 142.54,-792.14 138.58,-792.14"/>
<text xml:space="preserve" text-anchor="middle" x="81.12" y="-774.84" font-family="Arial" font-size="14.00" fill="#cfffac">config/vite.config.ts</text>
</g>
<!-- credentials/index.ts -->
<g id="node41" class="node">
<title>credentials/index.ts</title>
<path fill="none" stroke="#cfffac" d="M138.96,-834.14C138.96,-834.14 23.29,-834.14 23.29,-834.14 19.33,-834.14 15.38,-830.19 15.38,-826.23 15.38,-826.23 15.38,-818.31 15.38,-818.31 15.38,-814.35 19.33,-810.39 23.29,-810.39 23.29,-810.39 138.96,-810.39 138.96,-810.39 142.92,-810.39 146.88,-814.35 146.88,-818.31 146.88,-818.31 146.88,-826.23 146.88,-826.23 146.88,-830.19 142.92,-834.14 138.96,-834.14"/>
<text xml:space="preserve" text-anchor="middle" x="81.12" y="-816.84" font-family="Arial" font-size="14.00" fill="#cfffac">credentials/index.ts</text>
</g>
<!-- dist/client/index.js -->
<g id="node42" class="node">
<title>dist/client/index.js</title>
<path fill="none" stroke="#cfffac" d="M134.08,-876.14C134.08,-876.14 28.17,-876.14 28.17,-876.14 24.21,-876.14 20.25,-872.19 20.25,-868.23 20.25,-868.23 20.25,-860.31 20.25,-860.31 20.25,-856.35 24.21,-852.39 28.17,-852.39 28.17,-852.39 134.08,-852.39 134.08,-852.39 138.04,-852.39 142,-856.35 142,-860.31 142,-860.31 142,-868.23 142,-868.23 142,-872.19 138.04,-876.14 134.08,-876.14"/>
<text xml:space="preserve" text-anchor="middle" x="81.12" y="-858.84" font-family="Arial" font-size="14.00" fill="#cfffac">dist/client/index.js</text>
</g>
<!-- dist/client/registerSW.js -->
<g id="node43" class="node">
<title>dist/client/registerSW.js</title>
<path fill="none" stroke="#cfffac" d="M151.33,-918.14C151.33,-918.14 10.92,-918.14 10.92,-918.14 6.96,-918.14 3,-914.19 3,-910.23 3,-910.23 3,-902.31 3,-902.31 3,-898.35 6.96,-894.39 10.92,-894.39 10.92,-894.39 151.33,-894.39 151.33,-894.39 155.29,-894.39 159.25,-898.35 159.25,-902.31 159.25,-902.31 159.25,-910.23 159.25,-910.23 159.25,-914.19 155.29,-918.14 151.33,-918.14"/>
<text xml:space="preserve" text-anchor="middle" x="81.12" y="-900.84" font-family="Arial" font-size="14.00" fill="#cfffac">dist/client/registerSW.js</text>
</g>
<!-- dist/client/sw.js -->
<g id="node44" class="node">
<title>dist/client/sw.js</title>
<path fill="none" stroke="#c6c5fe" d="M125.83,-960.14C125.83,-960.14 36.42,-960.14 36.42,-960.14 32.46,-960.14 28.5,-956.19 28.5,-952.23 28.5,-952.23 28.5,-944.31 28.5,-944.31 28.5,-940.35 32.46,-936.39 36.42,-936.39 36.42,-936.39 125.83,-936.39 125.83,-936.39 129.79,-936.39 133.75,-940.35 133.75,-944.31 133.75,-944.31 133.75,-952.23 133.75,-952.23 133.75,-956.19 129.79,-960.14 125.83,-960.14"/>
<text xml:space="preserve" text-anchor="middle" x="81.12" y="-942.84" font-family="Arial" font-size="14.00" fill="#c6c5fe">dist/client/sw.js</text>
</g>
<!-- dist/client/workbox&#45;1504e367.js -->
<g id="node45" class="node">
<title>dist/client/workbox&#45;1504e367.js</title>
<path fill="none" stroke="#cfffac" d="M394.58,-960.14C394.58,-960.14 206.17,-960.14 206.17,-960.14 202.21,-960.14 198.25,-956.19 198.25,-952.23 198.25,-952.23 198.25,-944.31 198.25,-944.31 198.25,-940.35 202.21,-936.39 206.17,-936.39 206.17,-936.39 394.58,-936.39 394.58,-936.39 398.54,-936.39 402.5,-940.35 402.5,-944.31 402.5,-944.31 402.5,-952.23 402.5,-952.23 402.5,-956.19 398.54,-960.14 394.58,-960.14"/>
<text xml:space="preserve" text-anchor="middle" x="300.38" y="-942.84" font-family="Arial" font-size="14.00" fill="#cfffac">dist/client/workbox&#45;1504e367.js</text>
</g>
<!-- dist/client/sw.js&#45;&gt;dist/client/workbox&#45;1504e367.js -->
<g id="edge66" class="edge">
<title>dist/client/sw.js&#45;&gt;dist/client/workbox&#45;1504e367.js</title>
<path fill="none" stroke="#757575" d="M134.16,-948.27C150.07,-948.27 168.22,-948.27 186.53,-948.27"/>
<polygon fill="#757575" stroke="#757575" points="186.42,-951.77 196.42,-948.27 186.42,-944.77 186.42,-951.77"/>
</g>
<!-- dist/server/registerSW.js -->
<g id="node46" class="node">
<title>dist/server/registerSW.js</title>
<path fill="none" stroke="#cfffac" d="M154.33,-1002.14C154.33,-1002.14 7.92,-1002.14 7.92,-1002.14 3.96,-1002.14 0,-998.19 0,-994.23 0,-994.23 0,-986.31 0,-986.31 0,-982.35 3.96,-978.39 7.92,-978.39 7.92,-978.39 154.33,-978.39 154.33,-978.39 158.29,-978.39 162.25,-982.35 162.25,-986.31 162.25,-986.31 162.25,-994.23 162.25,-994.23 162.25,-998.19 158.29,-1002.14 154.33,-1002.14"/>
<text xml:space="preserve" text-anchor="middle" x="81.12" y="-984.84" font-family="Arial" font-size="14.00" fill="#cfffac">dist/server/registerSW.js</text>
</g>
<!-- dist/server/ssr.js -->
<g id="node47" class="node">
<title>dist/server/ssr.js</title>
<path fill="none" stroke="#cfffac" d="M129.58,-1044.14C129.58,-1044.14 32.67,-1044.14 32.67,-1044.14 28.71,-1044.14 24.75,-1040.19 24.75,-1036.23 24.75,-1036.23 24.75,-1028.31 24.75,-1028.31 24.75,-1024.35 28.71,-1020.39 32.67,-1020.39 32.67,-1020.39 129.58,-1020.39 129.58,-1020.39 133.54,-1020.39 137.5,-1024.35 137.5,-1028.31 137.5,-1028.31 137.5,-1036.23 137.5,-1036.23 137.5,-1040.19 133.54,-1044.14 129.58,-1044.14"/>
<text xml:space="preserve" text-anchor="middle" x="81.12" y="-1026.84" font-family="Arial" font-size="14.00" fill="#cfffac">dist/server/ssr.js</text>
</g>
<!-- run.ts -->
<g id="node48" class="node">
<title>run.ts</title>
<path fill="none" stroke="#c6c5fe" d="M1159.83,-162.14C1159.83,-162.14 1121.67,-162.14 1121.67,-162.14 1117.71,-162.14 1113.75,-158.19 1113.75,-154.23 1113.75,-154.23 1113.75,-146.31 1113.75,-146.31 1113.75,-142.35 1117.71,-138.39 1121.67,-138.39 1121.67,-138.39 1159.83,-138.39 1159.83,-138.39 1163.79,-138.39 1167.75,-142.35 1167.75,-146.31 1167.75,-146.31 1167.75,-154.23 1167.75,-154.23 1167.75,-158.19 1163.79,-162.14 1159.83,-162.14"/>
<text xml:space="preserve" text-anchor="middle" x="1140.75" y="-144.84" font-family="Arial" font-size="14.00" fill="#c6c5fe">run.ts</text>
</g>
<!-- server/vite.ts -->
<g id="node49" class="node">
<title>server/vite.ts</title>
<path fill="none" stroke="#c6c5fe" d="M1512.71,-162.14C1512.71,-162.14 1436.04,-162.14 1436.04,-162.14 1432.08,-162.14 1428.12,-158.19 1428.12,-154.23 1428.12,-154.23 1428.12,-146.31 1428.12,-146.31 1428.12,-142.35 1432.08,-138.39 1436.04,-138.39 1436.04,-138.39 1512.71,-138.39 1512.71,-138.39 1516.67,-138.39 1520.62,-142.35 1520.62,-146.31 1520.62,-146.31 1520.62,-154.23 1520.62,-154.23 1520.62,-158.19 1516.67,-162.14 1512.71,-162.14"/>
<text xml:space="preserve" text-anchor="middle" x="1474.38" y="-144.84" font-family="Arial" font-size="14.00" fill="#c6c5fe">server/vite.ts</text>
</g>
<!-- run.ts&#45;&gt;server/vite.ts -->
<g id="edge67" class="edge">
<title>run.ts&#45;&gt;server/vite.ts</title>
<path fill="none" stroke="#757575" d="M1168.05,-150.27C1221.56,-150.27 1344.18,-150.27 1416.69,-150.27"/>
<polygon fill="#757575" stroke="#757575" points="1416.37,-153.77 1426.37,-150.27 1416.37,-146.77 1416.37,-153.77"/>
</g>
<!-- server/apis/http.ts -->
<g id="node51" class="node">
<title>server/apis/http.ts</title>
<path fill="none" stroke="#c6c5fe" d="M1845.96,-221.14C1845.96,-221.14 1739.29,-221.14 1739.29,-221.14 1735.33,-221.14 1731.38,-217.19 1731.38,-213.23 1731.38,-213.23 1731.38,-205.31 1731.38,-205.31 1731.38,-201.35 1735.33,-197.39 1739.29,-197.39 1739.29,-197.39 1845.96,-197.39 1845.96,-197.39 1849.92,-197.39 1853.88,-201.35 1853.88,-205.31 1853.88,-205.31 1853.88,-213.23 1853.88,-213.23 1853.88,-217.19 1849.92,-221.14 1845.96,-221.14"/>
<text xml:space="preserve" text-anchor="middle" x="1792.62" y="-203.84" font-family="Arial" font-size="14.00" fill="#c6c5fe">server/apis/http.ts</text>
</g>
<!-- server/vite.ts&#45;&gt;server/apis/http.ts -->
<g id="edge75" class="edge">
<title>server/vite.ts&#45;&gt;server/apis/http.ts</title>
<path fill="none" stroke="#757575" d="M1521.02,-158.78C1573.12,-168.5 1658.98,-184.52 1720.01,-195.91"/>
<polygon fill="#757575" stroke="#757575" points="1719.14,-199.31 1729.61,-197.7 1720.42,-192.42 1719.14,-199.31"/>
</g>
<!-- server/main_props.ts -->
<g id="node52" class="node">
<title>server/main_props.ts</title>
<path fill="none" stroke="#c6c5fe" d="M2111.33,-221.14C2111.33,-221.14 1984.42,-221.14 1984.42,-221.14 1980.46,-221.14 1976.5,-217.19 1976.5,-213.23 1976.5,-213.23 1976.5,-205.31 1976.5,-205.31 1976.5,-201.35 1980.46,-197.39 1984.42,-197.39 1984.42,-197.39 2111.33,-197.39 2111.33,-197.39 2115.29,-197.39 2119.25,-201.35 2119.25,-205.31 2119.25,-205.31 2119.25,-213.23 2119.25,-213.23 2119.25,-217.19 2115.29,-221.14 2111.33,-221.14"/>
<text xml:space="preserve" text-anchor="middle" x="2047.88" y="-203.84" font-family="Arial" font-size="14.00" fill="#c6c5fe">server/main_props.ts</text>
</g>
<!-- server/vite.ts&#45;&gt;server/main_props.ts -->
<g id="edge78" class="edge">
<title>server/vite.ts&#45;&gt;server/main_props.ts</title>
<path fill="none" stroke="#757575" d="M1521.02,-152.65C1603.11,-157.26 1780.99,-168.7 1930,-188.27 1943.95,-190.1 1958.77,-192.45 1973,-194.91"/>
<polygon fill="#757575" stroke="#757575" points="1972.32,-198.34 1982.78,-196.63 1973.54,-191.45 1972.32,-198.34"/>
</g>
<!-- server/apis/sockets.ts -->
<g id="node53" class="node">
<title>server/apis/sockets.ts</title>
<path fill="none" stroke="#c6c5fe" d="M2112.83,-58.14C2112.83,-58.14 1982.92,-58.14 1982.92,-58.14 1978.96,-58.14 1975,-54.19 1975,-50.23 1975,-50.23 1975,-42.31 1975,-42.31 1975,-38.35 1978.96,-34.39 1982.92,-34.39 1982.92,-34.39 2112.83,-34.39 2112.83,-34.39 2116.79,-34.39 2120.75,-38.35 2120.75,-42.31 2120.75,-42.31 2120.75,-50.23 2120.75,-50.23 2120.75,-54.19 2116.79,-58.14 2112.83,-58.14"/>
<text xml:space="preserve" text-anchor="middle" x="2047.88" y="-40.84" font-family="Arial" font-size="14.00" fill="#c6c5fe">server/apis/sockets.ts</text>
</g>
<!-- server/vite.ts&#45;&gt;server/apis/sockets.ts -->
<g id="edge76" class="edge">
<title>server/vite.ts&#45;&gt;server/apis/sockets.ts</title>
<path fill="none" stroke="#757575" d="M1521.11,-152.8C1604.46,-156.03 1785.8,-156.67 1930,-112.27 1963.76,-101.87 1998.51,-80.65 2021.25,-65.07"/>
<polygon fill="#757575" stroke="#757575" points="2023.09,-68.05 2029.27,-59.44 2019.07,-62.32 2023.09,-68.05"/>
</g>
<!-- server/args.ts -->
<g id="node54" class="node">
<title>server/args.ts</title>
<path fill="none" stroke="#cfffac" d="M1833.58,-103.14C1833.58,-103.14 1751.67,-103.14 1751.67,-103.14 1747.71,-103.14 1743.75,-99.19 1743.75,-95.23 1743.75,-95.23 1743.75,-87.31 1743.75,-87.31 1743.75,-83.35 1747.71,-79.39 1751.67,-79.39 1751.67,-79.39 1833.58,-79.39 1833.58,-79.39 1837.54,-79.39 1841.5,-83.35 1841.5,-87.31 1841.5,-87.31 1841.5,-95.23 1841.5,-95.23 1841.5,-99.19 1837.54,-103.14 1833.58,-103.14"/>
<text xml:space="preserve" text-anchor="middle" x="1792.62" y="-85.84" font-family="Arial" font-size="14.00" fill="#cfffac">server/args.ts</text>
</g>
<!-- server/vite.ts&#45;&gt;server/args.ts -->
<g id="edge77" class="edge">
<title>server/vite.ts&#45;&gt;server/args.ts</title>
<path fill="none" stroke="#757575" d="M1521.02,-141.75C1576.74,-131.36 1671.08,-113.76 1732.36,-102.33"/>
<polygon fill="#757575" stroke="#757575" points="1732.72,-105.82 1741.91,-100.54 1731.44,-98.94 1732.72,-105.82"/>
</g>
<!-- server/apis/http.ts&#45;&gt;server/apis/generation.ts -->
<g id="edge69" class="edge">
<title>server/apis/http.ts&#45;&gt;server/apis/generation.ts</title>
<path fill="none" stroke="#757575" d="M1854.33,-206.78C1880.73,-208.92 1910.11,-216.14 1930,-235.27 2001.17,-303.71 2036.2,-625.89 2044.76,-716.5"/>
<polygon fill="#757575" stroke="#757575" points="2041.27,-716.78 2045.67,-726.41 2048.24,-716.13 2041.27,-716.78"/>
</g>
<!-- server/apis/http.ts&#45;&gt;server/main_props.ts -->
<g id="edge70" class="edge">
<title>server/apis/http.ts&#45;&gt;server/main_props.ts</title>
<path fill="none" stroke="#757575" d="M1854.28,-209.27C1887.43,-209.27 1928.93,-209.27 1964.92,-209.27"/>
<polygon fill="#757575" stroke="#757575" points="1964.88,-212.77 1974.88,-209.27 1964.88,-205.77 1964.88,-212.77"/>
</g>
<!-- server/main_props.ts&#45;&gt;shared/main_props.ts -->
<g id="edge72" class="edge">
<title>server/main_props.ts&#45;&gt;shared/main_props.ts</title>
<path fill="none" stroke="#757575" d="M2119.54,-209.27C2134.1,-209.27 2149.58,-209.27 2164.57,-209.27"/>
<polygon fill="#757575" stroke="#757575" points="2164.4,-212.77 2174.4,-209.27 2164.4,-205.77 2164.4,-212.77"/>
</g>
<!-- server/main_props.ts&#45;&gt;shared/types.ts -->
<g id="edge73" class="edge">
<title>server/main_props.ts&#45;&gt;shared/types.ts</title>
<path fill="none" stroke="#757575" d="M2099.07,-221.61C2156.38,-233.72 2252.63,-247.99 2333.25,-230.27 2353.98,-225.71 2375.63,-215.82 2392.36,-206.9"/>
<polygon fill="#757575" stroke="#757575" points="2393.7,-210.16 2400.76,-202.26 2390.32,-204.03 2393.7,-210.16"/>
</g>
<!-- server/apis/sockets.ts&#45;&gt;shared/types.ts -->
<g id="edge71" class="edge">
<title>server/apis/sockets.ts&#45;&gt;shared/types.ts</title>
<path fill="none" stroke="#757575" d="M2077.16,-34.02C2131.24,-12.64 2251.21,24.76 2333.25,-24.27 2385.4,-55.44 2408.7,-128.96 2417.48,-166.44"/>
<polygon fill="#757575" stroke="#757575" points="2413.97,-166.74 2419.52,-175.77 2420.8,-165.25 2413.97,-166.74"/>
</g>
<!-- server/ssr.tsx -->
<g id="node55" class="node">
<title>server/ssr.tsx</title>
<path fill="none" stroke="#c6c5fe" d="M120.96,-666.14C120.96,-666.14 41.29,-666.14 41.29,-666.14 37.33,-666.14 33.38,-662.19 33.38,-658.23 33.38,-658.23 33.38,-650.31 33.38,-650.31 33.38,-646.35 37.33,-642.39 41.29,-642.39 41.29,-642.39 120.96,-642.39 120.96,-642.39 124.92,-642.39 128.88,-646.35 128.88,-650.31 128.88,-650.31 128.88,-658.23 128.88,-658.23 128.88,-662.19 124.92,-666.14 120.96,-666.14"/>
<text xml:space="preserve" text-anchor="middle" x="81.12" y="-648.84" font-family="Arial" font-size="14.00" fill="#c6c5fe">server/ssr.tsx</text>
</g>
<!-- server/ssr.tsx&#45;&gt;client/App.tsx -->
<g id="edge74" class="edge">
<title>server/ssr.tsx&#45;&gt;client/App.tsx</title>
<path fill="none" stroke="#757575" d="M129.27,-654.27C161.89,-654.27 205.55,-654.27 240.47,-654.27"/>
<polygon fill="#757575" stroke="#757575" points="240.44,-657.77 250.44,-654.27 240.44,-650.77 240.44,-657.77"/>
</g>
</g>
</svg>
